<svg xmlns="http://www.w3.org/2000/svg" fill="none" viewBox="0 0 24 24" id="Pytorch--Streamline-Svg-Logos" height="24" width="24">
  <desc>
    Pytorch Streamline Icon: https://streamlinehq.com
  </desc>
  <path fill="#ee4c2c" d="M2.0150325 9.181275v0.6221l-0.955855 0.955825c-0.500255 0.507375 -0.500205 1.32355 0.0001525 1.840125l0.015315 0.015575c0.511185 0.520825 1.3502975 0.520825 1.87113 0 0.515625 -0.506075 0.520775 -1.33355 0.015475 -1.855425l-0.015475 -0.015725 0.318275 -0.318275c0.69445 0.69445 0.69445 1.808425 0 2.5077 -0.679975 0.694425 -1.7987825 0.694425 -2.49322 0 -0.68749525 -0.6875 -0.69437025 -1.790925 -0.020625 -2.48675l0.020625 -0.02095 1.2442025 -1.2442Zm0.6269175 0.704075c0.12785 0 0.231475 0.10365 0.231475 0.2315 0 0.127825 -0.103625 0.231475 -0.231475 0.231475 -0.127825 0 -0.231475 -0.10365 -0.231475 -0.231475 0 -0.12785 0.10365 -0.2315 0.231475 -0.2315Z" stroke-width="0.25"></path>
  <path fill="#000000" d="M6.480675 12.0169h-0.5353v1.374425h-0.4051V9.480275h0.9838c1.016925 0 1.5092 0.4963 1.518925 1.194075l0.00015 0.0212c0.014475 0.872875 -0.59315 1.32135 -1.562475 1.32135Zm0.065225 -2.1459 -0.58605 -0.0001v1.7988l0.54975 -0.014475c0.044275 -0.000875 0.08735 -0.002725 0.1292 -0.005575l0.04145 -0.0032 0.04065 -0.00385 0.039825 -0.004525c0.5781 -0.07135 0.8918 -0.359575 0.8918 -0.8943 0 -0.5633 -0.396925 -0.8667 -1.106625 -0.872775Zm2.239925 0.6654 0.896975 2.363025 0.882525 -2.363025h0.405075l-1.113975 2.84045 -0.2315 0.6221 -0.017575 0.046075 -0.017625 0.0446 -0.0177 0.04315 -0.01775 0.041725 -0.017825 0.040325c-0.00595 0.0132 -0.0119 0.026175 -0.0179 0.0389l-0.017975 0.03755c-0.036075 0.073725 -0.072675 0.13935 -0.1101 0.197575l-0.018775 0.028475c-0.1696 0.250925 -0.356275 0.3543 -0.582625 0.374725l-0.0253 0.001925c-0.021225 0.001325 -0.042825 0.001975 -0.06475 0.001975 -0.190975 0 -0.337125 -0.044825 -0.487775 -0.104875l-0.041225 -0.016725c-0.0069 -0.00285 -0.013825 -0.005725 -0.020775 -0.008625l0.11575 -0.361675c0.1302 0.072325 0.274875 0.1302 0.434025 0.1302l0.008525 -0.00005 0.0169 -0.0005c0.0028 -0.000125 0.005575 -0.000275 0.008375 -0.00045l0.016575 -0.001325c0.032925 -0.0032 0.06465 -0.0099 0.0956 -0.021375l0.015425 -0.00615c0.01025 -0.00435 0.0204 -0.009275 0.030525 -0.0148l0.0151 -0.008725c0.025125 -0.015325 0.04995 -0.034525 0.0747 -0.05835l0.01485 -0.014875c0.0396 -0.0411 0.0792 -0.0944 0.119875 -0.162875l0.0153 -0.026375c0.005125 -0.009025 0.01025 -0.018325 0.015425 -0.02785l0.015525 -0.029325 0.0157 -0.03085c0.002625 -0.005275 0.00525 -0.010625 0.0079 -0.016025l0.015925 -0.0332 0.016075 -0.034825c0.0054 -0.011875 0.010825 -0.024025 0.016275 -0.036475l0.016475 -0.03815c0.00275 -0.0065 0.005525 -0.013075 0.0083 -0.0197l0.0168 -0.04075 0.017 -0.0425 0.188075 -0.506375 -1.113975 -2.825975h0.41955Zm6.05705 -0.081975c0.810175 0 1.3744 0.593175 1.3744 1.504625 -0.01445 0.91145 -0.6221 1.519075 -1.4178 1.519075 -0.795725 0 -1.374425 -0.593175 -1.374425 -1.504625 0 -0.91145 0.60765 -1.519075 1.417825 -1.519075Zm-1.186325 -0.959675v0.37615h-1.364775v3.5349h-0.4051V9.8709h-1.3744V9.49475h3.144275Zm1.157375 1.32135c-0.607625 0 -0.99825 0.477425 -0.99825 1.1574 0 0.69445 0.4051 1.171875 1.012725 1.171875 0.607625 0 0.99825 -0.477425 0.99825 -1.1574 0 -0.7089 -0.405075 -1.171875 -1.012725 -1.171875Zm2.372675 2.5897h-0.390625V10.5364l0.390625 -0.0868v0.607625c0.188075 -0.361675 0.46295 -0.607625 0.839125 -0.607625 0.188075 0 0.361675 0.057875 0.50635 0.1302l-0.101275 0.3617c-0.1302 -0.07235 -0.274875 -0.1302 -0.434025 -0.1302 -0.3038 0 -0.5787 0.231475 -0.810175 0.737825v1.856675Zm2.869375 0.072325c-0.86805 0 -1.403325 -0.6221 -1.403325 -1.504625 0 -0.896975 0.59315 -1.519075 1.403325 -1.519075 0.347225 0 0.65105 0.0868 0.897 0.24595l-0.101275 0.347225c-0.217025 -0.144675 -0.4919 -0.2315 -0.795725 -0.2315 -0.6221 0 -0.99825 0.462975 -0.99825 1.14295 0 0.694425 0.4051 1.1574 1.012725 1.1574 0.28935 0 0.5787 -0.086825 0.7957 -0.2315l0.086825 0.3617c-0.260425 0.144675 -0.56425 0.231475 -0.897 0.231475Zm3.28895 -0.067525v-1.861475c0 -0.50635 -0.20255 -0.723375 -0.607625 -0.723375 -0.33275 0 -0.65105 0.173625 -0.882525 0.4051v2.17495h-0.390625V9.190925l0.390625 -0.0868v1.81325c0.303825 -0.3038 0.679975 -0.448475 0.99825 -0.448475 0.549775 0 0.896975 0.361675 0.896975 0.983775v1.957925h-0.405075Z" stroke-width="0.25"></path>
</svg>